<?xml version="1.0" encoding="utf-8"?>
<!-- Generator: Adobe Illustrator 19.1.0, SVG Export Plug-In . SVG Version: 6.00 Build 0)  -->
<svg version="1.1" id="Layer_1" xmlns="http://www.w3.org/2000/svg" xmlns:xlink="http://www.w3.org/1999/xlink" x="0px" y="0px"
	 viewBox="0 0 60.4 60.4" enable-background="new 0 0 60.4 60.4" xml:space="preserve">
<g>
	<path fill="#5095CA" d="M24.2,42.2c-1.5-0.8-3-1.8-4.2-3.2h-0.3c0,0,0,0,0,0h-9.3c-0.7,0-1.2,0.7-1.2,1.6c0,0.9,0.5,1.6,1.2,1.6
		h0.8v0H24.2z"/>
	<g>
		<path fill="#5095CA" d="M31.7,22.2c3.9,0.7,7,4.1,7,8.3c0,3.1-1.7,5.8-4.1,7.3h4.7c1.6-2,2.5-4.5,2.5-7.2
			c0-5.9-4.4-10.8-10.1-11.5v-2.5l-4,4.3l4,4.3V22.2z"/>
		<path fill="#5095CA" d="M51.2,40.6l-3.8-4.2V39h-9.2c0,0,0,0,0,0h-7.8c-0.1,0-0.1,0-0.2,0c-0.1,0-0.1,0-0.2,0H30v0
			c-4.5-0.2-8.1-3.9-8.1-8.4c0-3.7,2.4-6.9,5.7-8l-0.7-0.8c-0.5-0.5-0.4-1.3,0.1-1.8l0.8-0.8c-1.9,0.4-3.5,1.2-5,2.4
			c-2.6,2.1-4.2,5.4-4.2,9c0,3.3,1.4,6.3,3.7,8.5h0c0.1,0.1,0.2,0.2,0.3,0.3c2,1.8,4.6,2.9,7.5,2.9c0,0,0.1,0,0.1,0h0.3h16.9v2.5
			L51.2,40.6z"/>
	</g>
	<g>
		<path fill="#A7A2A0" d="M11.6,6.4C10.1,7.5,4.3,12.2,1.4,21c-2.9,8.9-0.7,16.4-0.1,18.1l5-1.6c-0.5-1.6-2.2-7.9,0.1-15
			c2.4-7.1,7-10.9,8.2-11.9L11.6,6.4z"/>
		<g>
			<path fill="#F47920" d="M12.9,5.5L16,9.7C22.2,5.4,30.2,4,37.9,6.5c13.1,4.2,20.3,18.3,16,31.4c-4.2,13.1-18.3,20.3-31.4,16
				C15,51.5,9.5,45.8,6.9,39l-5,1.6c3.1,8.4,9.8,15.3,19,18.3c15.8,5.1,32.9-3.5,38-19.4c5.1-15.8-3.6-32.9-19.4-38
				C30.2-1.6,20.4,0.2,12.9,5.5z"/>
		</g>
	</g>
	<g>
		<path fill="#696662" d="M49.4,26.2h-2.9c-0.4-1.7-1.1-3.2-1.9-4.7l2-2c0.2-0.2,0.4-0.6,0.4-0.9c0-0.3-0.1-0.7-0.4-0.9l-3.9-3.9
			c-0.5-0.5-1.4-0.5-1.9,0l-2,2c-1.5-0.9-3-1.5-4.7-1.9V11c0-0.7-0.6-1.3-1.3-1.3h-5.5c-0.7,0-1.3,0.6-1.3,1.3v2.9
			c-1.7,0.4-3.2,1.1-4.7,1.9l-2-2c-0.5-0.5-1.4-0.5-1.9,0l-3.9,3.9c-0.5,0.5-0.5,1.3,0,1.9l2,2c-0.9,1.5-1.5,3-1.9,4.7h-2.9
			c-0.7,0-1.3,0.6-1.3,1.3V33c0,0.7,0.6,1.3,1.3,1.3h2.9c0.3,1.2,0.7,2.4,1.3,3.5h3c-1-1.5-1.6-3.2-2-5c-0.1-0.6-0.7-1.1-1.3-1.1
			h-2.6v-2.9h2.6c0.6,0,1.2-0.5,1.3-1.1c0.4-2,1.2-3.9,2.3-5.7c0.4-0.5,0.3-1.2-0.1-1.7l-1.9-1.9l2-2l1.9,1.9
			c0.5,0.5,1.2,0.5,1.7,0.1c1.7-1.2,3.6-2,5.7-2.3c0.6-0.1,1.1-0.7,1.1-1.3v-2.6h2.9v2.6c0,0.6,0.5,1.2,1.1,1.3
			c2,0.4,3.9,1.2,5.7,2.3c0.5,0.4,1.2,0.3,1.7-0.1l1.9-1.9l2,2L42,20.4c-0.5,0.4-0.5,1.2-0.1,1.7c1.2,1.7,2,3.6,2.3,5.7
			c0.1,0.6,0.7,1.1,1.3,1.1h2.6v2.9h-2.6c-0.6,0-1.2,0.5-1.3,1.1c-0.3,1.8-1,3.5-1.9,5h3c0.5-1.1,1-2.2,1.3-3.4h2.9
			c0.7,0,1.3-0.6,1.3-1.3v-5.5C50.7,26.8,50.1,26.2,49.4,26.2z"/>
		<path fill="#696662" d="M43.1,43.4h-2.2v0h-5.2c-1,0.4-2,0.7-3.1,0.9c-0.6,0.1-1.1,0.7-1.1,1.3v2.6h-2.9v-2.6
			c0-0.6-0.5-1.2-1.1-1.3c-1.1-0.2-2.1-0.5-3.1-0.9h-5.3v0h-1.6v0h-3.5l3.4,3.4c0.2,0.2,0.6,0.4,0.9,0.4c0.3,0,0.7-0.1,0.9-0.4l2-2
			c1.5,0.9,3,1.5,4.7,1.9v2.9c0,0.7,0.6,1.3,1.3,1.3h5.5c0.7,0,1.3-0.6,1.3-1.3v-2.9c1.7-0.4,3.2-1.1,4.7-1.9l2,2
			c0.5,0.5,1.4,0.5,1.9,0l3.4-3.4L43.1,43.4L43.1,43.4z"/>
	</g>
</g>
<g display="none">
	<g display="inline">
		<path fill="#5095CA" d="M21.8,31.3l-8.1,0l-0.3,0c-0.8,0-1.5,0.6-1.5,1.4c0,0.4,0.1,0.8,0.4,1.1c0.3,0.3,0.7,0.5,1.1,0.5l8.4,0
			V31.3z"/>
		<path fill="#5095CA" d="M43.5,16.3c-1.4-4.2-5.6-7.2-10.3-7.2c-3.7,0-7.4,2-9.4,5.2c-3.5-0.5-7,1.3-8.5,4.3
			c-3.9,0.7-6.7,4-6.7,7.7c0,0.8,0.7,1.5,1.5,1.5c0.8,0,1.5-0.7,1.5-1.5c0-2.6,2.1-4.8,4.9-5l1-0.1l0.3-0.9c0.7-1.9,2.6-3.2,4.8-3.2
			c0.5,0,1.1,0.1,1.6,0.2l1.3,0.4l0.6-1.2c1.3-2.7,4.2-4.6,7.2-4.6c3.6,0,6.8,2.4,7.6,5.7l0.2,0.9l0.9,0.2c2.9,0.7,5,3.2,5,6.1
			c0,2.1-1.1,4-2.9,5.2v3.3c3.5-1.4,6-4.7,6-8.5C50,21.1,47.4,17.6,43.5,16.3z"/>
	</g>
	<g display="inline">
		<path fill="#A7A2A0" d="M1.8,40.5c0.6,1.8,3.3,8.7,10.8,14.2c7.5,5.5,15.3,5.7,17.2,5.6v-5.2c-1.6,0-8.2-0.3-14.2-4.7
			c-6.1-4.4-8.3-10-8.8-11.5L1.8,40.5z"/>
		<g>
			<path fill="#F47920" d="M1.3,39l5-1.6C4.1,30.2,5.2,22.1,10,15.5C18.1,4.4,33.7,1.9,44.8,10c11.1,8.1,13.6,23.7,5.5,34.8
				c-4.6,6.4-11.7,9.9-19,10.2v5.3C40.3,60,49,55.7,54.6,47.9c9.8-13.5,6.8-32.4-6.7-42.2S15.5-1,5.8,12.4C0,20.4-1.3,30.3,1.3,39z"
				/>
		</g>
	</g>
	<g display="inline">
		<path fill="#5095CA" d="M28.9,29.8h8c0.7,0,1.3-0.6,1.3-1.3s-0.6-1.3-1.3-1.3h-8c-0.7,0-1.3,0.6-1.3,1.3S28.2,29.8,28.9,29.8z"/>
		<path fill="#5095CA" d="M36.9,31.9h-8c-0.7,0-1.3,0.6-1.3,1.3c0,0.7,0.6,1.3,1.3,1.3h8c0.7,0,1.3-0.6,1.3-1.3
			C38.2,32.5,37.6,31.9,36.9,31.9z"/>
		<path fill="#5095CA" d="M36.9,36.7h-8c-0.7,0-1.3,0.6-1.3,1.3s0.6,1.3,1.3,1.3h8c0.7,0,1.3-0.6,1.3-1.3S37.6,36.7,36.9,36.7z"/>
	</g>
	<path display="inline" fill="#696662" d="M38.8,21.7H27.1c-2.1,0-3.7,1.7-3.7,3.7v21.7c0,2.1,1.7,3.7,3.7,3.7h11.7
		c2.1,0,3.7-1.7,3.7-3.7V25.4C42.5,23.4,40.9,21.7,38.8,21.7z M33.2,48.3c-1.2,0-2.1-1-2.1-2.1c0-1.2,1-2.1,2.1-2.1
		c1.2,0,2.1,1,2.1,2.1C35.3,47.4,34.3,48.3,33.2,48.3z M40,42.5H26V25.6c0-0.6,0.5-1.1,1.1-1.1h11.7c0.6,0,1.1,0.5,1.1,1.1V42.5z"/>
</g>
<g display="none">
	<circle display="inline" fill="#5095CA" cx="29.8" cy="29.4" r="3.6"/>
	<g display="inline">
		<path fill="#A7A2A0" d="M31.3,60.3c1.9,0,9.3-0.4,16.8-5.8c7.5-5.5,10.1-12.8,10.7-14.6l-5-1.6c-0.5,1.5-2.8,7.7-8.9,12
			c-6.1,4.4-12.1,4.8-13.6,4.8V60.3z"/>
		<g>
			<path fill="#F47920" d="M29.7,60.3v-5.3c-7.5-0.2-14.9-3.7-19.7-10.3C1.9,33.7,4.4,18.1,15.5,10c11.1-8.1,26.8-5.6,34.8,5.5
				c4.6,6.4,5.8,14.2,3.9,21.2l5,1.6c2.4-8.6,1-18.2-4.6-25.9C44.8-1,25.9-4,12.4,5.8C-1,15.5-4,34.5,5.8,47.9
				C11.5,55.9,20.5,60.2,29.7,60.3z"/>
		</g>
	</g>
	<g display="inline">
		<path fill="#5095CA" d="M34,42.5c-2.9,0-5.2,2.3-5.2,5.2c0,2.9,2.3,5.2,5.2,5.2c2.9,0,5.2-2.3,5.2-5.2
			C39.2,44.8,36.8,42.5,34,42.5z M34,50.2c-1.4,0-2.5-1.1-2.5-2.5c0-1.4,1.1-2.5,2.5-2.5c1.4,0,2.5,1.1,2.5,2.5
			C36.5,49.1,35.4,50.2,34,50.2z"/>
	</g>
	<g display="inline">
		<path fill="#5095CA" d="M47.4,28.7c-2.9,0-5.2,2.3-5.2,5.2c0,2.9,2.3,5.2,5.2,5.2s5.2-2.3,5.2-5.2C52.6,31,50.3,28.7,47.4,28.7z
			 M47.4,36.4c-1.4,0-2.5-1.1-2.5-2.5c0-1.4,1.1-2.5,2.5-2.5c1.4,0,2.5,1.1,2.5,2.5C50,35.3,48.8,36.4,47.4,36.4z"/>
	</g>
	<g display="inline">
		<path fill="#5095CA" d="M39.1,10.2c-2.9,0-5.2,2.3-5.2,5.2c0,2.9,2.3,5.2,5.2,5.2c2.9,0,5.2-2.3,5.2-5.2
			C44.2,12.5,41.9,10.2,39.1,10.2z M39.1,17.9c-1.4,0-2.5-1.1-2.5-2.5c0-1.4,1.1-2.5,2.5-2.5c1.4,0,2.5,1.1,2.5,2.5
			C41.6,16.8,40.4,17.9,39.1,17.9z"/>
	</g>
	<g display="inline">
		<path fill="#5095CA" d="M13.8,30.3c-2.9,0-5.2,2.3-5.2,5.2c0,2.9,2.3,5.2,5.2,5.2c2.9,0,5.2-2.3,5.2-5.2
			C19,32.6,16.6,30.3,13.8,30.3z M13.8,38c-1.4,0-2.5-1.1-2.5-2.5c0-1.4,1.1-2.5,2.5-2.5c1.4,0,2.5,1.1,2.5,2.5
			C16.3,36.9,15.2,38,13.8,38z"/>
	</g>
	<g display="inline">
		<path fill="#5095CA" d="M20.2,10.9c-2.9,0-5.2,2.3-5.2,5.2c0,2.9,2.3,5.2,5.2,5.2c2.9,0,5.2-2.3,5.2-5.2
			C25.4,13.2,23.1,10.9,20.2,10.9z M20.2,18.6c-1.4,0-2.5-1.1-2.5-2.5c0-1.4,1.1-2.5,2.5-2.5c1.4,0,2.5,1.1,2.5,2.5
			C22.8,17.5,21.6,18.6,20.2,18.6z"/>
	</g>
	<path display="inline" fill="#696662" d="M37.7,29.5c0-0.1,0-0.1,0-0.2c0-2.3-1-4.4-2.7-5.9l1.6-2.2c-1-0.4-1.8-1.1-2.5-1.9
		l-1.8,2.5c-0.8-0.3-1.6-0.4-2.5-0.4c-1.2,0-2.3,0.3-3.3,0.7l-1.5-2.1c-0.7,0.8-1.5,1.4-2.5,1.8l1.5,2.1c-1.3,1.4-2.1,3.3-2.1,5.3
		c0,0.3,0,0.5,0,0.8l-3.4,1.4c0.7,0.8,1.1,1.8,1.3,2.8l3-1.2c1.3,2.4,3.9,4.1,6.9,4.1c0,0,0,0,0,0l1.2,5c0.9-0.5,1.9-0.7,2.9-0.7
		c0,0,0.1,0,0.1,0l-1.2-4.9c1.8-0.8,3.3-2.2,4.1-4l4.1,1.2c0-1.1,0.4-2.1,0.9-3L37.7,29.5z M29.9,34.5c-2.9,0-5.2-2.4-5.2-5.3
		c0-2.9,2.4-5.2,5.2-5.2s5.2,2.4,5.2,5.2C35.1,32.2,32.8,34.5,29.9,34.5z"/>
</g>
<g display="none">
	<path display="inline" fill="#5095CA" d="M26.1,22.6h-9.2c-0.7,0-1.2-0.6-1.2-1.3c0-0.7,0.6-1.3,1.2-1.3h9.2c0.7,0,1.2,0.6,1.2,1.3
		C27.3,22,26.8,22.6,26.1,22.6z"/>
	<path display="inline" fill="#5095CA" d="M26,35.5h-5.8c-0.7,1-1.1,1.7-1.1,1.7c-0.2,0.5-0.6,0.8-1,0.9h8c0.7,0,1.2-0.6,1.2-1.3
		C27.2,36.1,26.7,35.5,26,35.5z"/>
	<g display="inline">
		<g>
			<path fill="#696662" d="M44.8,48.1h-8.9c-0.2,0-0.5-0.1-0.6-0.2L28,42.2c-1.3-0.9-1.5-2.9-0.4-4.5c0.7-1.1,1.8-1.7,2.9-1.7
				c0.5,0,1,0.1,1.4,0.4l1.3,0.9V26.5c0-1.6,1.5-2.9,3.5-2.9c2,0,3.5,1.3,3.5,2.9v5.9l5,1.1c1.6,0.1,2.8,1.4,2.8,3l-0.4,8.7
				C47.7,46.7,46.4,48,44.8,48.1C44.8,48.1,44.8,48.1,44.8,48.1z M36.2,46h8.5c0.5,0,0.8-0.4,0.8-0.9l0.4-8.7c0-0.4-0.4-0.8-0.9-0.8
				c-0.1,0-0.2,0-0.2,0L39,34.3c-0.5-0.1-0.8-0.5-0.8-1v-6.7c0-0.4-0.6-0.8-1.4-0.8c-0.8,0-1.4,0.4-1.4,0.8v12.8
				c0,0.4-0.2,0.7-0.6,0.9c-0.3,0.2-0.8,0.2-1.1-0.1l-3-2c-0.3-0.2-1,0-1.4,0.7c-0.4,0.7-0.4,1.4-0.1,1.6L36.2,46z"/>
		</g>
	</g>
	<g display="inline">
		<path fill="#A7A2A0" d="M59.2,38.5c0.6-1.8,2.5-9-0.4-17.8C56,11.8,49.8,7.1,48.3,6l-3.1,4.2c1.3,1,6.4,5.1,8.7,12.2
			c2.3,7.2,0.8,12.9,0.3,14.4L59.2,38.5z"/>
		<g>
			<path fill="#F47920" d="M58.7,40l-5-1.6c-2.5,7.1-8.1,13-15.8,15.5c-13.1,4.2-27.2-2.9-31.4-16c-4.3-13.1,2.9-27.2,16-31.4
				C30,4,37.8,5.4,43.9,9.4L47,5.1c-7.4-5-17-6.6-26.1-3.6C5,6.6-3.7,23.7,1.5,39.5c5.1,15.8,22.2,24.5,38,19.4
				C48.9,55.9,55.7,48.6,58.7,40z"/>
		</g>
	</g>
	<g display="inline">
		<path fill="#5095CA" d="M16.8,32.9h0.3c0.6-0.8,1.4-1.7,2.3-2.7h-2.6c-0.7,0-1.2,0.6-1.2,1.3C15.6,32.3,16.1,32.9,16.8,32.9z"/>
		<path fill="#5095CA" d="M26,30.3h-0.2c-1.4,0.8-2.6,1.7-3.5,2.7H26c0.7,0,1.2-0.6,1.2-1.3C27.3,30.9,26.7,30.3,26,30.3z"/>
	</g>
	<path display="inline" fill="#5095CA" d="M16.8,27.7h5.5c1.3-0.9,2.8-1.7,4.5-2.4c-0.2-0.2-0.5-0.3-0.7-0.3h-9.2
		c-0.7,0-1.2,0.6-1.2,1.3S16.2,27.7,16.8,27.7z"/>
	<g display="inline">
		<path fill="#5095CA" d="M32.3,33.3v-3.5c-0.7-0.9-1.2-2.1-1.2-3.3c0-3,2.4-5.4,5.4-5.4c3,0,5.4,2.4,5.4,5.4c0,0.8-0.2,1.6-0.6,2.3
			v2.8l1.1,0.2c1.3-1.4,2.1-3.3,2.1-5.4c0-4.4-3.6-8-8-8c-4.4,0-8,3.6-8,8C28.5,29.3,30,31.9,32.3,33.3z"/>
	</g>
	<g display="inline">
		<path fill="#696662" d="M25.9,40.4H14.7c-0.7,0-1.2-0.6-1.2-1.2V18.7c0-0.7,0.6-1.2,1.2-1.2h29.4c0.7,0,1.2,0.6,1.2,1.2v13.8
			l0.1,0c1,0.1,1.8,0.5,2.5,1.1V18.7c0-2.1-1.7-3.9-3.9-3.9H14.7c-2.1,0-3.9,1.7-3.9,3.9v20.5c0,2.1,1.7,3.9,3.9,3.9h12.7
			C26.5,42.4,26,41.5,25.9,40.4z"/>
	</g>
</g>
<g display="none">
	<g display="inline">
		<path fill="#A7A2A0" d="M47.1,5.1C45.5,4.1,39.3,0,30,0c-9.3,0-15.8,4.4-17.2,5.5l3.1,4.2c1.3-1,6.8-4.6,14.3-4.5
			c7.5,0,12.6,3.2,13.8,4.2L47.1,5.1z"/>
		<g>
			<path fill="#F47920" d="M48.3,6.1l-3.1,4.2c6,4.6,9.9,11.8,9.9,19.9c0,13.8-11.2,24.9-24.9,24.9c-13.8,0-24.9-11.2-24.9-24.9
				c0-7.9,3.7-14.9,9.4-19.4l-3.1-4.2C4.5,12,0,20.6,0,30.2c0,16.6,13.5,30.2,30.2,30.2s30.2-13.5,30.2-30.2
				C60.4,20.3,55.6,11.6,48.3,6.1z"/>
		</g>
	</g>
	<path display="inline" fill="#696662" d="M47.3,40.7c-0.2-0.6-0.9-1.3-1.7-1.3c-0.4,0-0.8,0.1-1.2,0.4c-0.2,0-0.4,0.1-0.7,0.1
		c-0.3,0-0.6-0.1-0.7-0.2c-0.3-0.3-0.4-0.8-0.4-1.3c0-1.1,0.4-1.1,0.7-1.1c0.5,0,1.1,0.2,1.3,0.3c0,0,0.1,0,0.1,0.1
		c0.1,0,0.4,0.1,0.9,0.1c1,0,1.7-0.7,1.7-1.6V33h-0.1h-1.9v2.8c-0.4-0.2-1.1-0.4-2-0.4c-0.6,0-2.7,0.2-2.7,3.1c0,1.2,0.3,2.1,1,2.7
		c0.5,0.5,1.2,0.7,2,0.7c0.8,0,1.4-0.2,1.5-0.3c0.1,0,0.1,0,0.2-0.1v3.7h-14v-3.8c0,0,0,0,0.1,0c0.2,0.1,1,0.5,1.9,0.5
		c0.8,0,1.4-0.3,1.9-0.9c0.5-0.6,0.8-1.5,0.8-2.7c0-3.1-1.8-3.5-2.5-3.5c-0.4,0-0.9,0.1-1.2,0.2c-0.3,0-0.6,0.1-0.6,0.1
		c-0.1,0-0.2,0.1-0.2,0.1V33h-0.1h-2h0v3.5c0,0.3,0.1,0.5,0.3,0.7c0.2,0.2,0.7,0.5,1.3,0.5c0.3,0,0.5-0.1,0.8-0.2
		c0.2,0,0.3-0.1,0.4-0.1c0.1,0,0.2-0.1,0.3-0.1c0.1,0,0.2-0.1,0.4-0.1c0,0,0.2-0.1,0.2-0.1c0.9-0.2,1.1,0.5,1,1.4
		c0,0.6-0.1,1-0.3,1.2c-0.2,0.2-1,0.1-1.3,0c-0.4-0.3-0.8-0.4-1.2-0.4c0,0-0.1,0-0.1,0c-0.1,0-0.1,0-0.2,0c-0.9,0-1.5,0.6-1.5,1.6
		v4.5h-1.9l0,0h-6.7c0,0,0,0,0,0h-0.7v0h-4.1v-4c0.3,0.1,1,0.5,1.9,0.5c0.6,0,2.6-0.2,2.7-3.2c0-1.4-0.2-2.3-0.9-3
		c-0.5-0.5-1.1-0.7-1.8-0.7c-0.9,0-1.8,0.4-1.8,0.5c0,0,0,0,0,0l0-3.7h12.5v-2.1H15.7v-4c0-0.2-0.1-0.5-0.2-0.7
		c-0.3-0.4-0.8-0.5-1.4-0.5c-0.5,0-0.9,0.1-1,0.1c-0.1,0-0.1,0-0.2,0.1c0,0-0.4,0.1-0.7,0.1c-0.3,0-1,0-1-1.9c0-2,0.9-2,1.2-2
		c0.2,0,0.3,0,0.4,0c0.4,0.3,0.8,0.4,1.2,0.4c0.6,0,1.1-0.3,1.4-0.5c0.2-0.2,0.4-0.5,0.4-0.8v-4.1c1,0,2.6,0.1,3.8,0.1
		c-0.2,0.5-0.8,1.9-0.1,3c0.5,0.9,1.5,1.4,3.1,1.4l0.1,0c0.7,0,1.4-0.1,1.9-0.3c0.6-0.3,1-0.6,1.4-1.2c0.7-1.3-0.1-2.8-0.2-2.9
		c0,0,0,0,0,0h2.5v-1.8v-0.2h-3.7c-0.4,0-0.7,0.2-0.9,0.5C23.3,14.9,23,16,24,17c0.1,0.3,0.2,0.7,0.1,1c-0.2,0.4-0.6,0.5-1.5,0.5
		l-0.1,0c-0.8,0-1.3-0.3-1.4-0.5c-0.1-0.3,0-0.8,0.2-1.2c0.7-0.9,0.8-1.7,0.6-2.2c-0.2-0.4-0.7-0.7-1.2-0.7c-0.8,0-5.8-0.1-5.9-0.1
		c-0.3,0-0.5,0.1-0.7,0.3c-0.2,0.2-0.3,0.4-0.3,0.7v4.3c-0.1,0-0.1-0.1-0.2-0.1c-0.1,0-0.6-0.2-1.2-0.2c-0.8,0-3.2,0.3-3.2,4
		c0,3.6,2.3,3.9,3,3.9c0.6,0,1.2-0.2,1.4-0.3c0,0,0.1,0,0.1,0v5.5h0l0,4.5c0,0.2,0.1,0.5,0.2,0.6c0.1,0.1,0.6,0.6,1.4,0.6
		c0.5,0,1-0.2,1.4-0.6c0.2-0.1,0.5-0.2,0.8-0.2c0.3,0,0.4,0.1,0.4,0.1c0.1,0.1,0.3,0.5,0.3,1.5c0,1.3-0.5,1.3-0.7,1.3
		c-0.4,0-0.8-0.2-1-0.3c0,0-0.1,0-0.1-0.1c-0.1,0-0.7-0.2-1.2-0.2c-0.9,0-1.6,0.6-1.6,1.5v5.6c0,0.6,0.4,1,1,1h5.8c0,0,0.1,0,0.1,0
		h6.5l0.2,0h18.3l0.2,0l0.4,0c0.6,0,1-0.4,1-1v-5.3C47.3,41,47.3,40.8,47.3,40.7z"/>
	<path display="inline" fill="#5095CA" d="M47.8,18.8c-0.2,0-0.2,0-0.2,0c-0.2,0-0.3,0.1-0.4,0.1v-4c0,0,0-0.1,0-0.1
		c0-0.6-0.4-1-1-1h-7.3v0h-9.5v0l0,0l0,2.1h0v4c0,0,0,0,0,0c0,0,0,0,0,0c-0.1-0.1-1-0.5-1.9-0.5c-0.6,0-2.2,0.2-2.6,2.6
		c0,0.1,0,0.1,0,0.2c0,0.1,0,0.1,0,0.2c0,0.1,0,0.2,0,0.2c0,0,0,0.1,0,0.1c0,0,0,0.1,0,0.1c0,0.2,0,0.4,0,0.6c0,0.1,0,0.3,0,0.4
		c0,0.1,0,0.2,0.1,0.3c0,0.2,0.1,0.3,0.1,0.5c0,0.1,0.1,0.3,0.2,0.4c0,0,0,0.1,0.1,0.1c0.6,1.2,1.8,1.3,2.2,1.3
		c0.7,0,1.2-0.2,1.5-0.3c0.2-0.1,0.3-0.1,0.4-0.2c0,0,0,0,0,0l0,2h0v3.9h2v0c1.5,0,4.1-0.1,4.6-0.1c0.4,0,0.8-0.2,1.1-0.5
		c0.5-0.6,0.4-1.7,0.3-2.2c0-0.1-0.1-0.2-0.1-0.3c-0.1-0.2-0.3-0.5-0.3-0.8c0-0.1,0.1-0.2,0.1-0.3c0.2-0.3,0.9-0.4,1.3-0.4
		c0.5,0,1.1,0.1,1.3,0.4c0.1,0.2,0.2,0.5,0.2,0.8c0,0.1-0.1,0.2-0.1,0.3c-0.5,0.7-0.6,1.5-0.3,2.1c0,0,0,0,0,0c0,0,0,0,0,0
		c0.1,0.3,0.3,0.6,0.6,0.8c0.2,0.2,0.4,0.2,0.6,0.2h4.7h2v-1c0,0,0-0.1,0-0.1c0,0,0,0,0,0v-4.2c0.1,0,0.1,0,0.2,0.1
		c0.1,0,0.4,0.1,0.8,0.1c1.7,0,3.5-1,3.5-3.7C51.7,19.9,49.6,18.8,47.8,18.8z M48.2,24.6c-0.2,0-0.3,0-0.4,0
		c-0.2-0.1-0.7-0.3-1.2-0.3c-0.9,0-1.5,0.6-1.5,1.4v3.9l-3.8,0c0,0,0-0.1,0-0.1c0-0.1,0.1-0.4,0.2-0.9c0.2-0.6,0.3-1.5-0.2-2.2
		c-0.5-0.9-1.6-1.4-3.3-1.4c-1.6,0-2.7,0.5-3.2,1.4c-0.3,0.5-0.3,1-0.2,1.5c0,0.8,0.2,1.4,0.3,1.7h-3.7v-4.8c0-0.3-0.2-0.6-0.4-0.8
		c-0.1,0-0.3-0.2-0.6-0.3c-0.1,0-0.1,0-0.2-0.1c0,0,0,0,0,0c-0.1,0-0.3-0.1-0.4-0.1c-0.1,0-0.3,0-0.4,0c-0.4,0.1-0.8,0.2-1.2,0.6
		c-0.2,0.1-0.4,0.1-0.6,0.1c-0.3,0-0.3-0.1-0.4-0.1c0,0,0,0,0,0c0,0,0,0,0,0c0,0-0.1-0.1-0.1-0.2c0,0,0,0,0,0
		c-0.1-0.2-0.2-0.6-0.2-1.2c0-0.1,0-0.2,0-0.3c0.1-1.1,0.5-1.1,0.6-1.1c0.4,0,0.8,0.2,1,0.3c0,0,0.1,0,0.1,0.1c0,0,0.1,0,0.3,0.1
		c0.3,0.1,0.6,0.2,1,0.2c0.9,0,1.6-0.7,1.6-1.6v-4.6h13.8v4c0,0.2,0.1,0.5,0.2,0.6c0.1,0.1,0.6,0.7,1.5,0.7c0.3,0,0.8,0,1.2-0.3
		c0.1,0,0.4-0.1,0.7,0c0.8,0.2,1,0.9,1,1.9C49.7,24,49.2,24.6,48.2,24.6z"/>
</g>
</svg>
