<?xml version="1.0" encoding="utf-8"?>
<!-- Generator: Adobe Illustrator 19.1.0, SVG Export Plug-In . SVG Version: 6.00 Build 0)  -->
<svg version="1.1" id="Layer_1" xmlns="http://www.w3.org/2000/svg" xmlns:xlink="http://www.w3.org/1999/xlink" x="0px" y="0px"
	 viewBox="0 0 758.5 789.9" enable-background="new 0 0 758.5 789.9" xml:space="preserve">
<path d="M756.8,322.6c5.6-15.6-2.5-32.8-18.1-38.4l-73.1-26.3l89.5-80.6l1.7-4.7c5.6-15.6-2.5-32.8-18.1-38.4L370.2,1.8
	c-13.6-4.9-28.4,0.6-35.7,12.4L3.5,312.6l-1.7,4.7c-2.7,7.5-2.3,15.7,1.1,22.9c3.4,7.3,9.5,12.8,17,15.5L93,381.9L3.5,462.6
	l-1.7,4.7c-2.7,7.5-2.3,15.7,1.1,22.9c3.4,7.3,9.5,12.8,17,15.5L93,531.9L3.5,612.6l-1.7,4.7c-5.6,15.6,2.5,32.8,18.1,38.4
	l368.5,132.4c3.3,1.2,6.7,1.8,10.1,1.8c4.4,0,8.7-1,12.8-2.9c5.3-2.5,9.7-6.4,12.7-11.3l331.1-298.3l1.7-4.7
	c5.6-15.6-2.5-32.8-18.1-38.4l-73.1-26.3l89.5-80.6L756.8,322.6z M50.4,324.1L363.6,41.9l344.6,123.8l-85.3,76.9L606,257.8
	L589.2,273l-85.3,76.8l-33.7,30.4L395,448l-127.5-45.8l-21.8-7.8l-76.3-27.4l-21.4-7.7l-21.4-7.7L50.4,324.1z M708.2,465.7L395,748
	L50.4,624.1l85.3-76.8l252.7,90.8c3.3,1.2,6.7,1.8,10.1,1.8c4.4,0,8.7-1,12.8-2.9c5.3-2.5,9.7-6.4,12.7-11.3l207.9-187.3
	L708.2,465.7z"/>
</svg>
