<?xml version="1.0" encoding="utf-8"?>
<!-- Generator: Adobe Illustrator 19.1.0, SVG Export Plug-In . SVG Version: 6.00 Build 0)  -->
<svg version="1.1" id="Layer_1" xmlns="http://www.w3.org/2000/svg" xmlns:xlink="http://www.w3.org/1999/xlink" x="0px" y="0px"
	 viewBox="-611 638 56 100" enable-background="new -611 638 56 100" xml:space="preserve">
<path d="M-583,638c-15.5,0-28,12.5-28,28c0,5.1,1.4,9.8,3.7,14c6.9,12.4,8.7,19.3,9.8,26.1c0.9,5.6,2.2,7,6.5,7c1.8,0,4.8,0,7.9,0
	c3.2,0,6.1,0,7.9,0c4.3,0,5.6-1.3,6.5-7c1.1-6.7,2.9-13.7,9.8-26.1c2.3-4.2,3.7-8.9,3.7-14C-555,650.5-567.6,638-583,638z"/>
<path d="M-573,715h-20c-0.8,0-1.5,0.7-1.5,1.5v1c0,0.8,0.7,1.5,1.5,1.5h20c0.8,0,1.5-0.7,1.5-1.5v-1C-571.5,715.7-572.2,715-573,715
	z"/>
<path d="M-573,721h-20c-0.8,0-1.5,0.7-1.5,1.5v1c0,0.8,0.7,1.5,1.5,1.5h20c0.8,0,1.5-0.7,1.5-1.5v-1C-571.5,721.7-572.2,721-573,721
	z"/>
<path d="M-573,727h-20c-0.8,0-1.5,0.7-1.5,1.5v1c0,0.8,0.7,1.5,1.5,1.5h20c0.8,0,1.5-0.7,1.5-1.5v-1C-571.5,727.7-572.2,727-573,727
	z"/>
<path d="M-590.5,733h15c0,3-4,5-7.5,5S-590.5,736-590.5,733z"/>
</svg>
