<?xml version="1.0" encoding="utf-8"?>
<!-- Generator: Adobe Illustrator 19.1.0, SVG Export Plug-In . SVG Version: 6.00 Build 0)  -->
<svg version="1.1"
	 id="Layer_1" xmlns:dc="http://purl.org/dc/elements/1.1/" xmlns:cc="http://creativecommons.org/ns#" xmlns:svg="http://www.w3.org/2000/svg" xmlns:rdf="http://www.w3.org/1999/02/22-rdf-syntax-ns#"
	 xmlns="http://www.w3.org/2000/svg" xmlns:xlink="http://www.w3.org/1999/xlink" x="0px" y="0px" viewBox="-589 638 90 90.1"
	 enable-background="new -589 638 90 90.1" xml:space="preserve">
<path d="M-544.4,638.1c-1.2,0-2.4,0.1-3.7,0.3c-0.7,0.1-1.4,0.3-2,0.4c-1.3,0.3-2.3,1.5-2.3,2.8c0,0.2,0,0.4,0,0.6
	c0,1.4,0,3.9,0,3.9c0,0.1,0,0.2,0,0.2c-0.1,0.9-0.7,1.7-1.6,1.9c-2.6,0.8-5.1,1.8-7.4,3.1c-0.8,0.4-1.8,0.4-2.5-0.2
	c-0.1,0-0.1-0.1-0.2-0.2l-2.8-2.8c-0.1-0.1-0.2-0.2-0.4-0.4c-1-0.9-2.5-1.1-3.7-0.4c-1.7,1-3.3,2.2-4.7,3.7h0
	c-0.1,0.1-0.3,0.3-0.4,0.4c-0.8,0.9-1.6,1.8-2.4,2.8c-0.4,0.6-0.8,1.2-1.1,1.8c-0.7,1.1-0.6,2.7,0.3,3.7c0.1,0.1,0.3,0.3,0.4,0.4
	c1,1,2.8,2.8,2.8,2.8c0.1,0.1,0.1,0.1,0.2,0.2c0.6,0.7,0.6,1.7,0.2,2.5c0.1-0.2,0.2-0.3,0.3-0.5c-1.4,2.5-2.6,5.1-3.4,7.9
	c-0.3,0.8-1,1.5-1.9,1.6c-0.1,0-0.1,0-0.2,0h-3.9c-0.2,0-0.4,0-0.6,0c-1.3,0-2.6,1-2.9,2.3c-0.5,1.9-0.7,3.9-0.8,5.9v0v0.5
	c0,1.2,0.1,2.4,0.3,3.7c0.1,0.7,0.2,1.4,0.4,2c0.3,1.3,1.6,2.3,2.9,2.3c0.2,0,0.4,0,0.6,0c1.4,0,3.9,0,3.9,0c0.1,0,0.2,0,0.2,0
	c0.9,0.1,1.6,0.8,1.9,1.6c0,0,0,0,0,0c0.8,2.6,1.8,5.1,3.1,7.4c0.4,0.8,0.4,1.8-0.2,2.5c0,0.1-0.1,0.1-0.2,0.2l-2.8,2.8
	c-0.1,0.1-0.2,0.2-0.4,0.4c-0.9,1-1.1,2.5-0.4,3.6c1,1.7,2.2,3.3,3.6,4.8l0,0c0.1,0.1,0.3,0.2,0.4,0.3c0.9,0.8,1.8,1.6,2.8,2.4
	c0.6,0.4,1.2,0.8,1.8,1.2c1.1,0.7,2.7,0.5,3.7-0.4c0.1-0.1,0.3-0.2,0.4-0.4l2.8-2.8c0.1-0.1,0.1-0.1,0.2-0.2
	c0.7-0.6,1.7-0.6,2.5-0.2c2.3,1.3,4.8,2.3,7.4,3.1c0.8,0.3,1.5,1,1.6,1.9c0,0.1,0,0.1,0,0.2v3.9c0,0.2,0,0.3,0,0.5
	c0,1.3,1,2.6,2.3,2.9c1.9,0.5,3.9,0.8,5.9,0.8h0h0.5c1.2,0,2.4-0.1,3.7-0.3c0.7-0.1,1.4-0.3,2-0.4c1.3-0.3,2.3-1.6,2.3-2.9
	c0-0.2,0-0.4,0-0.6c0-1.5,0-3.9,0-3.9c0-0.1,0-0.2,0-0.2c0.1-0.9,0.7-1.7,1.6-1.9c2.6-0.8,5.1-1.8,7.4-3.1c0.8-0.4,1.8-0.4,2.5,0.2
	c0.1,0,0.1,0.1,0.2,0.2l2.8,2.8c0.1,0.1,0.3,0.2,0.4,0.4c1,0.9,2.5,1.1,3.7,0.4c1.7-1,3.3-2.2,4.7-3.7h0c0.1-0.1,0.3-0.3,0.4-0.4
	c0.8-0.9,1.6-1.8,2.3-2.8c0.4-0.6,0.8-1.2,1.2-1.7c0.7-1.1,0.6-2.7-0.3-3.7c-0.1-0.1-0.3-0.3-0.4-0.4c-1-1-2.8-2.8-2.8-2.8
	c-0.1-0.1-0.1-0.1-0.2-0.2c-0.6-0.7-0.6-1.7-0.2-2.5c1.3-2.3,2.3-4.8,3.1-7.4c0.3-0.8,1-1.5,1.9-1.6c0.1,0,0.1,0,0.2,0h3.9
	c0.2,0,0.4,0,0.6,0c1.3,0,2.6-1,2.9-2.3c0.5-1.9,0.7-3.9,0.8-5.9v0v-0.5c0-1.2-0.1-2.4-0.3-3.7c-0.1-0.7-0.3-1.4-0.4-2
	c-0.3-1.3-1.5-2.3-2.8-2.3c-0.2,0-0.4,0-0.6,0c-1.4,0-3.9,0-3.9,0c-0.1,0-0.2,0-0.2,0c-0.9-0.1-1.7-0.7-1.9-1.6
	c-0.8-2.8-1.9-5.4-3.3-7.8c0.1,0.1,0.2,0.3,0.2,0.4c-0.4-0.8-0.4-1.8,0.2-2.5c0-0.1,0.1-0.1,0.2-0.2l2.8-2.8
	c0.1-0.1,0.2-0.3,0.4-0.4c0.9-1,1.1-2.5,0.4-3.7c-1-1.7-2.2-3.3-3.6-4.7l0,0c-0.1-0.1-0.3-0.3-0.4-0.4c-0.9-0.8-1.8-1.6-2.8-2.4
	c-0.6-0.4-1.2-0.8-1.8-1.1c-1.1-0.7-2.7-0.5-3.7,0.4c-0.1,0.1-0.3,0.2-0.5,0.4c-0.6,0.6-2.8,2.8-2.8,2.8c-0.1,0.1-0.1,0.1-0.2,0.2
	c-0.7,0.6-1.7,0.6-2.5,0.2c0.2,0.1,0.4,0.3,0.6,0.4c-2.5-1.5-5.2-2.6-8.1-3.4c-0.8-0.3-1.5-1-1.6-1.9c0-0.1,0-0.1,0-0.2v-3.9
	c0-0.2,0-0.3,0-0.5c0-1.3-1-2.6-2.3-2.9c-1.9-0.5-3.9-0.8-5.9-0.8h0H-544.4z M-544.1,653.6c0.1,0,0.2,0,0.3,0c1.7,0.1,3.4,1.3,3.8,3
	c0,1.1,0,2.1,0.1,3.2c10,1.8,18,9.9,19.3,20.5c1.4,12.3-6.8,23.5-18.9,25.9l-0.2,0c0,1.4-0.1,2.7-0.6,4c-1.4,3.3-7.1,2.7-7.8-0.8
	c0-1.1,0-2.1-0.1-3.2c-10-1.8-18-9.9-19.2-20.5c-1.5-12.4,7-23.7,19.2-25.9c0-0.2,0-0.4,0-0.5C-548.9,656.7-546.9,653.6-544.1,653.6
	z M-544,656.1c-1,0-1.7,0.8-1.7,1.7v4.1c-3.4,0.3-6.8,1.4-8.9,3.5c-2.1,2.1-3.1,4.7-3.1,7.9c0,2.5,0.5,4.5,1.6,6.1
	c1,1.6,2.4,2.8,4.1,3.6c1.7,0.8,3.8,1.6,6.2,2.3v13.1c0,0-0.1,0-0.1,0c-1.3-0.4-2.2-0.9-2.9-1.6c-0.8-0.7-1.3-1.4-1.7-2.2
	c-0.4-0.8-0.8-2-1.3-3.5c-0.2-0.7-0.6-1.2-1.2-1.6c-0.6-0.4-1.3-0.6-2.1-0.6c-1,0-1.9,0.3-2.6,1.1c-0.7,0.7-1.1,1.5-1.1,2.4
	c0,1.2,0.3,2.5,0.8,3.7c0.5,1.3,1.3,2.5,2.4,3.7c1.1,1.2,2.5,2.2,4.1,2.9c1.7,0.8,3.7,1.3,5.7,1.4v4.1c0,1,0.8,1.7,1.7,1.7
	s1.7-0.8,1.7-1.7v-4.1c2.5-0.2,5-0.9,7.1-2.1c1.9-1.2,3.4-2.7,4.4-4.6c1-1.9,1.5-3.9,1.5-6c0-1.7-0.3-3.3-0.9-4.7
	c-0.6-1.4-1.5-2.7-2.7-3.7c-1.1-1-2.3-1.8-3.7-2.3c-1.4-0.5-3.2-1.1-5.6-1.7l-0.2,0v-11.7c0.1,0,0.1,0,0.2,0
	c2.4,0.8,3.9,2.3,4.5,4.7c0.5,2,1.7,3,3.6,3c1,0,1.8-0.3,2.5-1c0.7-0.7,1-1.5,1-2.4c0-0.8-0.2-1.8-0.7-2.8c-0.5-1-1.1-2-2-3
	c-1.1-1.3-2.3-2.2-3.8-2.8c-1.5-0.6-3.4-1-5.3-1.2v-4.1C-542.3,656.9-543,656.1-544,656.1z M-545.7,667.3v10.8
	c-1.7-0.6-2.9-1.3-3.7-2.1c-0.8-0.8-1.2-1.9-1.2-3.3c0-1.6,0.4-2.7,1.3-3.5C-548.5,668.4-547,667.5-545.7,667.3z M-542.3,686.4
	l0.2,0c1.9,0.6,3.4,1.4,4.4,2.2c1,0.9,1.5,2.2,1.5,3.8c0,1.5-0.5,2.8-1.6,4c-1,1.1-2.5,1.9-4.4,2.3c-0.1,0-0.1,0-0.2,0V686.4z"/>
</svg>
