<?xml version="1.0" encoding="utf-8"?>
<!-- Generator: Adobe Illustrator 19.1.0, SVG Export Plug-In . SVG Version: 6.00 Build 0)  -->
<svg version="1.1" id="Layer_1" xmlns="http://www.w3.org/2000/svg" xmlns:xlink="http://www.w3.org/1999/xlink" x="0px" y="0px"
	 viewBox="-589 638 72 86.2" enable-background="new -589 638 72 86.2" xml:space="preserve">
<path d="M-523.1,707.3v-21.4c0-6.9-5.6-12.4-12.4-12.4c-6.9,0-12.4,5.6-12.4,12.4v1.2h0c0,0.2,0,0.3,0,0.5v21.9v1.7
	c0,4.1-3.3,7.4-7.4,7.4s-7.4-3.3-7.4-7.4v-23.5c1.1-0.3,1.9-1.2,2-2.4l0-0.2c16.4-18.4,22.4-31,18.5-38.7c-2.3-4.6-7.5-5.8-11-6.1
	c-0.8-1.4-2.3-2.4-4.1-2.4c-2.6,0-4.6,2.1-4.6,4.6s2.1,4.6,4.6,4.6c1.5,0,2.8-0.7,3.7-1.8c2.4,0.2,5.6,0.9,6.9,3.4
	c1.1,2.1,0.6,5.6-1.3,9.9c-2.3,5.2-6.7,11.6-13.1,19.2c-0.5-0.5-1.2-0.7-1.9-0.7h-4.6c-0.7,0-1.3,0.2-1.8,0.6
	c-6.2-7.4-10.5-13.7-12.8-18.8c-2-4.4-2.4-7.8-1.3-9.9c1.2-2.4,4.5-3.2,6.9-3.4c0.8,1.1,2.2,1.8,3.7,1.8c2.6,0,4.6-2.1,4.6-4.6
	c0-2.6-2.1-4.6-4.6-4.6c-1.8,0-3.3,1-4.1,2.4c-3.5,0.3-8.7,1.6-11,6.1c-3.8,7.6,2.1,20,18.1,38.1l0,0.4c0.1,1.2,0.9,2.1,2,2.4v23.5
	c0,6.9,5.6,12.4,12.4,12.4c6.9,0,12.4-5.6,12.4-12.4v-1.2h0c0-0.2,0-0.3,0-0.5v-21.9v-1.7c0-4.1,3.3-7.4,7.4-7.4s7.4,3.3,7.4,7.4
	v21.3c-3.6,1.1-6.2,4.4-6.2,8.3c0,4.8,3.9,8.7,8.7,8.7c4.8,0,8.7-3.9,8.7-8.7C-517,711.7-519.5,708.4-523.1,707.3z M-525.7,718.9
	c-1.8,0-3.3-1.5-3.3-3.3c0-1.8,1.5-3.3,3.3-3.3c1.8,0,3.3,1.5,3.3,3.3C-522.3,717.4-523.8,718.9-525.7,718.9z"/>
</svg>
