<?xml version="1.0" encoding="utf-8"?>
<!-- Generator: Adobe Illustrator 19.1.0, SVG Export Plug-In . SVG Version: 6.00 Build 0)  -->
<svg version="1.1" id="Layer_1" xmlns="http://www.w3.org/2000/svg" xmlns:xlink="http://www.w3.org/1999/xlink" x="0px" y="0px"
	 viewBox="-590 639.6 47 66.6" enable-background="new -590 639.6 47 66.6" xml:space="preserve">
<path d="M-545.6,665.3h-3.4c0-3,0-8.3,0-8.3c0-9.4-8.1-17.3-17.5-17.3c-9.4,0-16.5,8.1-17.5,17.5c0,0,0,4.1,0,8.1h-3.4
	c-1.3,0-2.6,0.9-2.6,2.2v36.7c0,1.3,1.3,2.1,2.6,2.1h41.8c1.3,0,2.6-0.9,2.6-2.1v-36.7C-543,666.2-544.4,665.3-545.6,665.3z
	 M-578,657c0-6.3,5.2-12,11.5-12c6.3,0,11.5,5.9,11.5,12c0,0,0,5.3,0,8.3h-23C-578,661.3-578,657-578,657z"/>
</svg>
