<?xml version="1.0" encoding="utf-8"?>
<!-- Generator: Adobe Illustrator 19.1.0, SVG Export Plug-In . SVG Version: 6.00 Build 0)  -->
<svg version="1.1" id="Layer_1" xmlns="http://www.w3.org/2000/svg" xmlns:xlink="http://www.w3.org/1999/xlink" x="0px" y="0px"
	 viewBox="0 0 792 236" enable-background="new 0 0 792 236" xml:space="preserve">
<g>
	<path fill="#F68920" d="M161.9,117.9c0,10-3,19.3-9.1,27.9c-6.1,8.6-14.3,15.4-24.8,20.5c-10.5,5.1-22.1,7.6-34.8,7.6
		c-12.8,0-24.5-2.5-35.2-7.6c-10.7-5.1-19-11.9-25.2-20.6c-6.1-8.6-9.2-18-9.2-28.2c0-7.8,1.8-15.1,5.5-22c3.6-6.9,8.7-12.9,15.3-18
		c6.5-5.1,14-9.1,22.4-11.9c8.4-2.8,17.1-4.2,26.2-4.2c8.9,0,17.5,1.3,25.8,4c8.2,2.7,15.6,6.5,22.2,11.6c6.5,5.1,11.7,11.1,15.4,18
		C160,102,161.9,109.7,161.9,117.9 M146.2,118.2c0-14.2-3.1-25.3-9.2-33.3c-6.2-8-13.3-13.4-21.3-16.1c-8-2.7-15.6-4.1-22.7-4.1
		c-5.5,0-11.2,0.7-17.1,2.2c-5.9,1.5-11.7,4.2-17.3,8.1c-5.6,3.9-10.2,9.4-13.8,16.5c-3.6,7.1-5.4,15.8-5.4,26.3
		c0,9.2,1.5,17.2,4.5,24c3,6.8,7.1,12.4,12.3,16.7c5.2,4.3,11,7.4,17.3,9.3c6.3,1.9,12.9,2.9,19.7,2.9c6.1,0,12.3-0.9,18.5-2.6
		c6.3-1.8,12-4.7,17.1-8.6c5.2-4,9.4-9.4,12.6-16.2C144.6,136.4,146.2,128.1,146.2,118.2 M288.6,78.4h-1.2c-0.4,1.2-0.9,2-1.5,2.5
		c-0.7,0.5-2,0.7-4,0.7c-1.1,0-2.4-0.1-3.9-0.4l-7.9-1.7c-7.5-1.7-14.6-2.5-21.3-2.5c-10.8,0-20.7,2.2-29.9,6.7
		c-9.2,4.5-16.5,10.5-21.9,18.1c-5.4,7.6-8.1,15.9-8.1,24.8c0,5.9,1.3,11.7,3.9,17.2c2.6,5.6,6.4,10.6,11.4,15.1
		c5,4.5,11.2,8,18.5,10.6c7.3,2.6,15.4,3.9,24.2,3.9c8.4,0,15.4-1,21-3c5.6-2,11.8-5.1,18.6-9.4v-3.5c-5.5,4.4-11.6,7.5-18.4,9.4
		c-6.8,1.9-13.1,2.8-18.7,2.8c-6.8,0-13-1-18.6-3.1c-5.6-2.1-10.5-5.1-14.7-9.2c-4.2-4-7.5-8.8-9.7-14.3c-2.2-5.5-3.3-11.4-3.3-17.8
		c0-6.6,1.1-12.7,3.4-18.4c2.3-5.6,5.5-10.5,9.6-14.5c4.1-4,9-7.2,14.7-9.4c5.7-2.2,11.7-3.3,18.2-3.3c4.7,0,9.8,0.7,15.2,2.1
		c5.4,1.4,10.2,3.7,14.4,6.8c4.2,3.1,6.8,6.9,7.7,11.3h1.3L288.6,78.4z M409.9,75.3h-1.2c-2.7,3-6.4,4.5-11.3,4.5h-72.6
		c-1.8,0-3.3-0.1-4.6-0.2c-1.3-0.1-2.4-0.4-3.4-0.7c-1-0.4-1.8-0.8-2.4-1.3c-0.6-0.5-1.3-1.3-2.1-2.3h-1.2v22.3h1.2
		c0.6-6,2.8-9.8,6.4-11.6c3.7-1.8,8.2-2.6,13.7-2.6h22.3v76.7c0,3.6-1.1,6.1-3.5,7.6c-2.3,1.5-5.1,2.3-8.5,2.4v1h35.7v-1
		c-8.1-0.2-12.2-3.6-12.2-10V83.4h22.3c5.4,0,10,0.9,13.7,2.6c3.7,1.8,5.8,5.6,6.4,11.6h1.2V75.3z M543,125.5
		c0,8.6-2.6,16.5-7.8,23.9c-5.2,7.4-12.3,13.2-21.3,17.6c-9,4.4-18.9,6.6-29.8,6.6c-11,0-21-2.2-30.1-6.5
		c-9.1-4.4-16.3-10.2-21.6-17.6c-5.3-7.4-7.9-15.5-7.9-24.2c0-6.7,1.6-13,4.7-18.9c3.1-5.9,7.5-11,13.1-15.4
		c5.6-4.4,12-7.8,19.2-10.2c7.2-2.4,14.7-3.6,22.5-3.6c7.7,0,15,1.2,22.1,3.4c7.1,2.3,13.4,5.6,19,9.9c5.6,4.3,10,9.5,13.2,15.4
		C541.4,111.8,543,118.4,543,125.5 M529.8,125.7c0-12.2-2.6-21.7-7.9-28.5c-5.3-6.9-11.4-11.5-18.3-13.8c-6.9-2.3-13.4-3.5-19.5-3.5
		c-4.7,0-9.6,0.6-14.7,1.9c-5.1,1.3-10,3.6-14.8,6.9c-4.8,3.4-8.7,8.1-11.8,14.2c-3.1,6.1-4.6,13.6-4.6,22.5
		c0,7.8,1.3,14.7,3.8,20.6c2.6,5.9,6.1,10.6,10.6,14.3c4.5,3.7,9.5,6.4,14.9,8c5.4,1.6,11,2.5,16.9,2.5c5.2,0,10.5-0.8,15.9-2.3
		c5.4-1.5,10.3-4,14.7-7.4c4.5-3.4,8.1-8,10.8-13.9C528.4,141.3,529.8,134.2,529.8,125.7"/>
	<g>
		<polygon fill="#F68920" points="720.5,100.6 696.1,76.3 680.5,76.3 680.5,76.3 661.5,76.3 637.1,100.7 637.1,116.3 637.1,120.2 
			637.1,135.1 661.5,159.4 670.2,159.4 670.2,159.4 676.5,159.4 696.1,159.4 701.5,154 701.5,154 720.5,135.1 720.5,120.3 
			720.6,120.3 720.6,113.5 720.6,113.5 720.6,112.7 720.5,112.6 		"/>
		<path fill="#F68920" d="M729.9,28.6h-54.4l-29.8,29.7h-27.9l-32.2,32.1v45.4l32.2,32.1h6.1v6.8l32.9,32.8h46.5l32.9-32.8v-21.5
			l32.2-32V66.9L729.9,28.6z M763,118.9l-26.7,26.6v-17.2l-10.9-10.8v7.6l5.5,5.5v20.3l-3.2,3.2h-19.4l-5.4,5.4h27l0.9-1v13.9
			L701.1,202H659l-29.8-29.6v-4.6h34.1l3.7-3.6h-5.4h-2l-1.4-1.4l-0.4-0.4h-28.5v-31.9l3.1-3.1v-7.3v-0.3l-8.5,8.4v34.1H620
			l-29.1-28.9V92.6L620,63.7h20.2l-3.2,3.2v27.1l5.4-5.4V69.2l5.5-5.5h13.2l7.9,7.9h7.7l-12.5-12.5l-0.8-0.8h-10l24.4-24.2h50
			L763,69.2V118.9z"/>
	</g>
</g>
</svg>
